<?xml version="1.0" encoding="UTF-8"?>
<svg width="377.95" height="378.9" fill="none" stroke-linecap="square" stroke-miterlimit="10" version="1.1" viewBox="0 0 377.95275 378.90288" xmlns="http://www.w3.org/2000/svg" xmlns:cc="http://creativecommons.org/ns#" xmlns:dc="http://purl.org/dc/elements/1.1/" xmlns:rdf="http://www.w3.org/1999/02/22-rdf-syntax-ns#">
<metadata>
<rdf:RDF>
<cc:Work rdf:about="">
<dc:format>image/svg+xml</dc:format>
<dc:type rdf:resource="http://purl.org/dc/dcmitype/StillImage"/>
<dc:title/>
</cc:Work>
</rdf:RDF>
</metadata>
<clipPath>
<path d="m0 0h937.82v868.6h-937.82z"/>
</clipPath>
<path d="m0 20.048c0-11.072 8.9756-20.048 20.048-20.048h143.21c5.317 0 10.416 2.1122 14.176 5.8718 3.7597 3.7597 5.8718 8.8589 5.8718 14.176v80.188c0 11.072-8.9756 20.048-20.048 20.048h-143.21c-11.072 0-20.048-8.9756-20.048-20.048z" fill="#fff" fill-opacity=".5" fill-rule="evenodd"/>
<path d="m0 148.91c0-11.063 8.9686-20.032 20.032-20.032h143.24c5.3128 0 10.408 2.1105 14.165 5.8672 3.7567 3.7566 5.8672 8.8519 5.8672 14.165v80.125c0 11.063-8.9686 20.032-20.032 20.032h-143.24c-11.063 0-20.032-8.9686-20.032-20.032z" fill="#fff" fill-opacity=".5" fill-rule="evenodd"/>
<path d="m0 278.75c0-11.063 8.9686-20.032 20.032-20.032h143.24c5.3128 0 10.408 2.1105 14.165 5.8672 3.7567 3.7567 5.8672 8.8519 5.8672 14.165v80.125c0 11.063-8.9686 20.032-20.032 20.032h-143.24c-11.063 0-20.032-8.9686-20.032-20.032z" fill="#fff" fill-opacity=".5" fill-rule="evenodd"/>
<path d="m194.65 20.079c0-11.063 8.9686-20.032 20.032-20.032h143.24c5.3128 0 10.408 2.1105 14.165 5.8672 3.7567 3.7567 5.8672 8.8519 5.8672 14.165v80.125c0 11.063-8.9686 20.032-20.032 20.032h-143.24c-11.063 0-20.032-8.9686-20.032-20.032z" fill="#fff" fill-opacity=".5" fill-rule="evenodd"/>
<path d="m194.65 149.41c0-11.063 8.9686-20.032 20.032-20.032h143.24c5.3128 0 10.408 2.1105 14.165 5.8672 3.7567 3.7567 5.8672 8.8519 5.8672 14.165v80.125c0 11.063-8.9686 20.032-20.032 20.032h-143.24c-11.063 0-20.032-8.9686-20.032-20.032z" fill="#fff" fill-opacity=".5" fill-rule="evenodd"/>
<path d="m194.65 278.75c0-11.063 8.9686-20.032 20.032-20.032h143.24c5.3128 0 10.408 2.1105 14.165 5.8672 3.7567 3.7567 5.8672 8.8519 5.8672 14.165v80.125c0 11.063-8.9686 20.032-20.032 20.032h-143.24c-11.063 0-20.032-8.9686-20.032-20.032z" fill="#fff" fill-opacity=".5" fill-rule="evenodd"/>
</svg>
