<?xml version="1.0" encoding="UTF-8"?>
<svg width="377.95" height="378.98" fill="none" stroke-linecap="square" stroke-miterlimit="10" version="1.1" viewBox="0 0 377.95278 378.98162" xmlns="http://www.w3.org/2000/svg" xmlns:cc="http://creativecommons.org/ns#" xmlns:dc="http://purl.org/dc/elements/1.1/" xmlns:rdf="http://www.w3.org/1999/02/22-rdf-syntax-ns#">
<metadata>
<rdf:RDF>
<cc:Work rdf:about="">
<dc:format>image/svg+xml</dc:format>
<dc:type rdf:resource="http://purl.org/dc/dcmitype/StillImage"/>
<dc:title/>
</cc:Work>
</rdf:RDF>
</metadata>
<clipPath>
<path d="m0 0h937.82v868.6h-937.82z"/>
</clipPath>
<path d="m0 18.898c0-10.437 8.4609-18.898 18.898-18.898h340.16c5.0121 0 9.8188 1.991 13.363 5.5351 3.5441 3.5441 5.5352 8.3508 5.5352 13.363v75.59c0 10.437-8.4609 18.898-18.898 18.898h-340.16c-10.437 0-18.898-8.4609-18.898-18.898z" fill="#fff" fill-opacity=".5" fill-rule="evenodd"/>
<path d="m0 151.7c0-10.437 8.4609-18.898 18.898-18.898h340.16c5.0121 0 9.8188 1.991 13.363 5.5351 3.5441 3.5441 5.5352 8.3508 5.5352 13.363v75.59c0 10.437-8.4609 18.898-18.898 18.898h-340.16c-10.437 0-18.898-8.4609-18.898-18.898z" fill="#fff" fill-opacity=".5" fill-rule="evenodd"/>
<path d="m0 284.49c0-10.437 8.4609-18.898 18.898-18.898h340.16c5.0121 0 9.8188 1.9911 13.363 5.5351 3.5441 3.5441 5.5352 8.3508 5.5352 13.363v75.59c0 10.437-8.4609 18.898-18.898 18.898h-340.16c-10.437 0-18.898-8.4609-18.898-18.898z" fill="#fff" fill-opacity=".5" fill-rule="evenodd"/>
</svg>
