<svg xmlns="http://www.w3.org/2000/svg" width="400" height="148.6"><defs/><g fill-rule="evenodd"><path d="M307 1l-4 1a14 14 0 00-4 0l-1 1h-1-1-1l-1 1h-2v1h-1-1v1h-1l-1 1h-1l-1 1h-1v1h-1l-1 1a407 407 0 01-10 11l-1 1v1h-1v-1l-1-1v-1l-1-1v-1h-1v-1l-1-1-2-3a34 34 0 00-21-11 109 109 0 00-17 1h-2-1l-1 1h-1l-1 1-2 1h-1-1v1h-1l-1 1-2 1v1a61 61 0 00-8 9h-1V7h-9v94h10V74a822 822 0 013-41l1-1v-1-1h1l1-2v-1l1-1v-1l1-1 1-1v-1a31 31 0 0110-7l1-1h2l1-1h2l2-1h8l2 1h3l1 1h1l1 1h2l1 1h1v1h1v1h1l1 1h1l1 1v1l1 1 1 1v1h1v2h1v2a55 55 0 013 8v2l1 1v62h11V72a526 526 0 013-40v-1l1-2h1v-1-1h1v-1l1-2 1-1 1-1 2-2a59 59 0 003-3h1l1-1 2-1h1l1-1h2l1-1h1l4-1h7l1 1h3l1 1h2l1 1h1v1h2l1 1v1h1a27 27 0 018 12l1 1v2l1 1v3l1 1v63h11V70a1064 1064 0 00-3-44v-1h-1v-1-1l-1-1-1-2v-1l-1-1v-1h-1v-1h-1a36 36 0 00-28-15h-2M19 56a2694 2694 0 01-2 63l-1 1v2l-1 1v1l-1 1v2h-1v1h-1v2l-1 1-1 1-1 1v1H8v1l-1 1-1 1c-1 1-1 1 1 2a27 27 0 012 2l1 1a22 22 0 001 2 35 35 0 012 1h1l2-2 1-1 1-1v-1h1v-1l1-1 1-1v-1h1v-1l1-1v-1l1-1v-1l1-1v-1-1l1-2 1-1v-1-1-1l1-3v-1h1v-1-1-1-2l1-1v-2-1-6V7H19v49m368-2v47h11V7h-11v47" fill="#fcfcfc"/><path d="M111 5l1 1-1 1h-1l-1 1h3v2h3l1-1V8c2 0 2-2 1-2h-1-1l-1-1h-3m-5 6h-1l-1 1h3l1-1h-2m4 0l-2 1h1l-2 1-2 1h-1l-1 1h-1v1h-2-1l-1 1h-1v1h-2l-1 1h-1-1l-1 1h-1l-1 1h-2v1l-2 1-1 1a7 7 0 00-1 2l-1 1v2h-1-1l-2 2v1l-1 1-1 1v1l-1 1-1 1v2h-1v-2-1h1v-1-1-1l-1 1v1h-1v3l-1 1v-1-1-1l1-1-1-1v1h-1v1h-1v-2l1-1v-1l1-1v-1-1l-2 2v1h-1v1h-1v2l-1 1v2l-1 1v3l-1 1-1 2v3h-1-1v2l1 1-1 1v2l-1 4 1 6v2l1 1v2l1 2v2l1 1v1h1v3h1v1h1v2h1v1l1 1 1 1 1 1 2 2a95 95 0 0010 10l1 1h1l1 1 1 1 2 1h1v1h2l1 1h5v-1h4v-1h1l1-1 1-1h1v-1l1-1c1-1 1-6-1-7a24 24 0 00-5-5h-1l-1-1h-3-3v-1h-3l-2-1h-1-1l-1-1-1-1-1-1v-1h-1v-1-1l-2-1-1-1v-1h1v-1c0-1 0-1 0 0h1v1l1 1 2 2 1 1h3v-1h-1l-1-1-1-1h-1v-1h-1l1-1v1l1-1v-1-1l-1-1-1-1h-1v-1h-1v-1-1-2-1l-1-5v-2-1l-1-1 1-1v-1l-1-1v-1-2-3h1v-1-1l1-1 1-1v-1l1-1h1v-1l1-1v1h-1l-1 2v2l-1 1v2h-1c0 4 1 4 2 2v-1l1-3v-1-1l1-1v-1h1v-1h1l1-3h1l1-2 1-1 2-2v-1l-1 1h-1v1a37 37 0 00-5 5l-1 1v-1-1h1v-1h1v-1l1-1 1-1 2-1v-1-1-1-2l-1 1c-1 0-1 0 0 0v-1l1-1h1l1-1 1-1 2-1h1l1-1h2v-1h2c0-1 0-1 0 0v1h-1l-1 1-2 1-2 2h1l2-1v-1h3v-1 1c-1 1-1 1 1 1h1l-1 1h-1l-1 1h-1v1h-1-1v1l-1 1-1-1h-1v1l-1 1h2l1-1 2-1h1l1-1h1l1-1h1l2-1h3l1-1h3v1l1-1h6l1 1h3l1 1h1l1 1h2v1h1v1h1l2 2 1 1h1l1 1 1 2 1 1v1h1v2h1l1 3v1l1 1v3h1v7l-1-1v9 1h1v-1l1 2v1h-1v4h-1v2l-1 1v1l-1 1v1l-1 1v1l-1 1v1h-1v1l-1 1v-1-1h1v-1h1v-1l1-2v-1l-1 1v1h-1v1l-1 1-1 1v1l-1 1h-1v1 1l1-1v1l-2 3-2 2h-2-1l-1 1h-1-1v1h-1v1 1h1-1v1h-1l-1 1 1 1 1-1v2l1 1h3l1-1h1l-1 1h-1l-1 1h-1v1h-1l-1 1-1 1c-2 0-3 1-1 1h1l1-1h4l1-1h1v1h1v-1h1l1-1 2-1h1l1-1c0-1 0-1 0 0v1h1l1-1h1v-1l1-1v2h-1l-1 1h-1v1l-3 2h-1-1v1h-1l-1 1h-1l-1 1h-1v1l-1 1h-3l-1 1v1h1l3-1h2l1-1 2-1h1l1-1h3l1-1 1-1 1-1h1v-1l3-1 1-2h1a24 24 0 004-4l1-1a42 42 0 011-2l1-1v-1h1v-1l1-1v-1h1v-1-1l1-2 1-1v-1l1-1v-1l1-1v-1-1-1-1-1l1-1v-1-1-2l1-1 1-4-1-2v-2-2l-1-2v-2-1-1-1l-1-2v-1-1l-1-1v-1-1l-1-1a20 20 0 00-1-4l-1-1v-1-1h-1v-1l-1-1a8 8 0 00-1-2l-1-1-1-1v-1l-2-1v-1l-1-1-1-1-1-1c1 0 0 0 0 0l-2-1-1-1-1-1h-2l-1-1-1-1h-3v1h1v1h1-1-1-1l1 1h1l1 1h1l1 1 1 1 1 1 1 2h1l1 1 1 1 1 1v1l1 1-2-2a12 12 0 00-3-2l-2-2-1-1h-1l-1-1-1-1h-1l-1-1h-1l-1-1h-1l-1-1h-1l-1-1h-1l-2-1h-3l-1-1h-5l-2-1h-2v-1h-1m-20 3l-1 1-2 1h-1v1h-1l-1 1c-1 1-1 2-3 2a104 104 0 00-5 7l-1 1v2l1-2 2-1v-1l1-1 1-1 2-2 3-3 1-1h1v-1h1l1-1h1l1-1-1-1m29 1l2 1h1l1 1h0-2-1-1v-1h-1c-1 0-1 0 0 0v-1h1m20 3h-1 1m-52 1l-1 1-1 2 1-1c2-1 3-2 1-2m44 0v1h2v1h1l1 2 1 1v-1h-1l-1-1-1-1h-1-1v-1h-1v-1h1m-54 2v2c0 1 2-1 2-3l-2 1m28 0l-1 1 1-1h1-1M75 31l1 2v-2h-1m3 2v2h-1v1h-1v0l1-1v-1h1v-1m59 5l1 1v2l1-1v-1l-1-1h-1m-67 3l-1 2v1c0 1 0 0 0 0v-1-1h1v-1-1 1m90 4v2h1v-2h-1m-17 9c0 1 0 0 0 0m1 4h-1 1m-1 2v-1 1m-2 4v1l-1 1v1l1 2v-1l1-1v-3h-1m-78 2v-1 1m0 1l1 1v1l-1-1v-2 1m64 23l-1 1h-1v1h-1v-1h1l1-1h1m16 1h-1 1m-14 0l-1 1h-1v1h-1l1-1 1-1h1m2 6c-1 0-1 0 0 0m2 4l-1 1h-1-1v0h1l1-1h1" fill="#ec2424"/></g></svg>