<svg width="85" height="32" viewBox="0 0 85 32" fill="none" xmlns="http://www.w3.org/2000/svg">
<mask id="path-1-inside-1_530_6332" fill="white">
<path fill-rule="evenodd" clip-rule="evenodd" d="M65.0904 0.723633L64.2293 0.936596C63.9437 0.895822 63.6537 0.895822 63.3682 0.936596L63.1529 1.14956H62.5071L62.2918 1.36252H61.8612V1.57548H61.4307V1.78845H61.2154L61.0001 2.00141H60.7849L60.5696 2.21437H60.3543V2.42734H60.139L59.9237 2.6403C59.2206 3.43406 58.5029 4.21506 57.771 4.98289L57.5557 5.19585V5.40882H57.3404V5.19585L57.1251 4.98289V4.76993L56.9099 4.55697V4.344H56.6946V4.13104L56.4793 3.91808L56.0487 3.27919C54.8747 1.98707 53.2702 1.15563 51.5279 0.936596C50.3043 0.91306 49.0806 0.984265 47.8682 1.14956H47.2224L47.0071 1.36252H46.7918L46.5765 1.57548L46.146 1.78845H45.7154V2.00141H45.5001L45.2849 2.21437L44.8543 2.42734V2.6403C44.2177 3.22143 43.6408 3.86345 43.1321 4.55697H42.9168V2.00141H40.9793V22.0199H43.1321V16.2699C43.2737 13.3546 43.4891 10.4432 43.7779 7.53845L43.9932 7.32548V6.89956H44.2085L44.4237 6.47363V6.26067L44.639 6.04771V5.83474L44.8543 5.62178L45.0696 5.40882V5.19585C45.6802 4.56271 46.412 4.05597 47.2224 3.70511L47.4376 3.49215H47.8682L48.0835 3.27919H48.514L48.9446 3.06623H50.6668L51.0974 3.27919H51.7432L51.9585 3.49215H52.1737L52.389 3.70511H52.8196L53.0349 3.91808H53.2501V4.13104H53.4654V4.344H53.6807L53.896 4.55697H54.1112L54.3265 4.76993V4.98289L54.5418 5.19585L54.7571 5.40882V5.62178H54.9724V6.04771H55.1876V6.47363C55.4472 7.02411 55.6632 7.59373 55.8335 8.17734V8.60326L56.0487 8.81622V22.0199H58.4168V15.844C58.5225 12.9974 58.7379 10.1558 59.0626 7.32548V7.11252L59.2779 6.68659H59.4932V6.26067H59.7085V6.04771L59.9237 5.62178L60.139 5.40882L60.3543 5.19585L60.7849 4.76993C61.0078 4.56469 61.2232 4.35159 61.4307 4.13104H61.646L61.8612 3.91808L62.2918 3.70511H62.5071L62.7224 3.49215H63.1529L63.3682 3.27919H63.5835L64.4446 3.06623H65.9515L66.1668 3.27919H66.8126L67.0279 3.49215H67.4585L67.6737 3.70511H67.889V3.91808H68.3196L68.5349 4.13104V4.344H68.7501C69.5478 5.02562 70.1431 5.90898 70.4724 6.89956L70.6876 7.11252V7.53845L70.9029 7.75141V8.3903L71.1182 8.60326V22.0199H73.4862V15.4181C73.3364 12.2905 73.1211 9.16641 72.8404 6.04771V5.83474H72.6251V5.40882L72.4099 5.19585L72.1946 4.76993V4.55697L71.9793 4.344V4.13104H71.764V3.91808H71.5487C70.8579 2.96501 69.9553 2.18142 68.9103 1.62762C67.8653 1.07381 66.7058 0.764553 65.521 0.723633H65.0904ZM3.09041 12.4366C2.99978 16.9103 2.85626 21.3829 2.65985 25.8533L2.44457 26.0662V26.4921L2.2293 26.7051V26.9181L2.01402 27.131V27.557H1.79874V27.7699H1.58346V28.1959L1.36819 28.4088L1.15291 28.6218L0.93763 28.8347V29.0477H0.722352V29.2607L0.507075 29.4736L0.291797 29.6866C0.076519 29.8996 0.076519 29.8996 0.507075 30.1125C0.658017 30.247 0.801733 30.3891 0.93763 30.5384L1.15291 30.7514C1.21732 30.8969 1.28917 31.0391 1.36819 31.1773C1.51396 31.2438 1.65755 31.3148 1.79874 31.3903H2.01402L2.44457 30.9644L2.65985 30.7514L2.87513 30.5384V30.3255H3.09041V30.1125L3.30569 29.8996L3.52096 29.6866V29.4736H3.73624V29.2607L3.95152 29.0477V28.8347L4.1668 28.6218V28.4088L4.38207 28.1959V27.7699L4.59735 27.344L4.81263 27.131V26.4921L5.02791 25.8533V25.6403H5.24319V24.5755L5.45846 24.3625V2.00141H3.09041V12.4366ZM82.3126 12.0107V22.0199H84.6807V2.00141H82.3126V12.0107Z"/>
</mask>
<path fill-rule="evenodd" clip-rule="evenodd" d="M65.0904 0.723633L64.2293 0.936596C63.9437 0.895822 63.6537 0.895822 63.3682 0.936596L63.1529 1.14956H62.5071L62.2918 1.36252H61.8612V1.57548H61.4307V1.78845H61.2154L61.0001 2.00141H60.7849L60.5696 2.21437H60.3543V2.42734H60.139L59.9237 2.6403C59.2206 3.43406 58.5029 4.21506 57.771 4.98289L57.5557 5.19585V5.40882H57.3404V5.19585L57.1251 4.98289V4.76993L56.9099 4.55697V4.344H56.6946V4.13104L56.4793 3.91808L56.0487 3.27919C54.8747 1.98707 53.2702 1.15563 51.5279 0.936596C50.3043 0.91306 49.0806 0.984265 47.8682 1.14956H47.2224L47.0071 1.36252H46.7918L46.5765 1.57548L46.146 1.78845H45.7154V2.00141H45.5001L45.2849 2.21437L44.8543 2.42734V2.6403C44.2177 3.22143 43.6408 3.86345 43.1321 4.55697H42.9168V2.00141H40.9793V22.0199H43.1321V16.2699C43.2737 13.3546 43.4891 10.4432 43.7779 7.53845L43.9932 7.32548V6.89956H44.2085L44.4237 6.47363V6.26067L44.639 6.04771V5.83474L44.8543 5.62178L45.0696 5.40882V5.19585C45.6802 4.56271 46.412 4.05597 47.2224 3.70511L47.4376 3.49215H47.8682L48.0835 3.27919H48.514L48.9446 3.06623H50.6668L51.0974 3.27919H51.7432L51.9585 3.49215H52.1737L52.389 3.70511H52.8196L53.0349 3.91808H53.2501V4.13104H53.4654V4.344H53.6807L53.896 4.55697H54.1112L54.3265 4.76993V4.98289L54.5418 5.19585L54.7571 5.40882V5.62178H54.9724V6.04771H55.1876V6.47363C55.4472 7.02411 55.6632 7.59373 55.8335 8.17734V8.60326L56.0487 8.81622V22.0199H58.4168V15.844C58.5225 12.9974 58.7379 10.1558 59.0626 7.32548V7.11252L59.2779 6.68659H59.4932V6.26067H59.7085V6.04771L59.9237 5.62178L60.139 5.40882L60.3543 5.19585L60.7849 4.76993C61.0078 4.56469 61.2232 4.35159 61.4307 4.13104H61.646L61.8612 3.91808L62.2918 3.70511H62.5071L62.7224 3.49215H63.1529L63.3682 3.27919H63.5835L64.4446 3.06623H65.9515L66.1668 3.27919H66.8126L67.0279 3.49215H67.4585L67.6737 3.70511H67.889V3.91808H68.3196L68.5349 4.13104V4.344H68.7501C69.5478 5.02562 70.1431 5.90898 70.4724 6.89956L70.6876 7.11252V7.53845L70.9029 7.75141V8.3903L71.1182 8.60326V22.0199H73.4862V15.4181C73.3364 12.2905 73.1211 9.16641 72.8404 6.04771V5.83474H72.6251V5.40882L72.4099 5.19585L72.1946 4.76993V4.55697L71.9793 4.344V4.13104H71.764V3.91808H71.5487C70.8579 2.96501 69.9553 2.18142 68.9103 1.62762C67.8653 1.07381 66.7058 0.764553 65.521 0.723633H65.0904ZM3.09041 12.4366C2.99978 16.9103 2.85626 21.3829 2.65985 25.8533L2.44457 26.0662V26.4921L2.2293 26.7051V26.9181L2.01402 27.131V27.557H1.79874V27.7699H1.58346V28.1959L1.36819 28.4088L1.15291 28.6218L0.93763 28.8347V29.0477H0.722352V29.2607L0.507075 29.4736L0.291797 29.6866C0.076519 29.8996 0.076519 29.8996 0.507075 30.1125C0.658017 30.247 0.801733 30.3891 0.93763 30.5384L1.15291 30.7514C1.21732 30.8969 1.28917 31.0391 1.36819 31.1773C1.51396 31.2438 1.65755 31.3148 1.79874 31.3903H2.01402L2.44457 30.9644L2.65985 30.7514L2.87513 30.5384V30.3255H3.09041V30.1125L3.30569 29.8996L3.52096 29.6866V29.4736H3.73624V29.2607L3.95152 29.0477V28.8347L4.1668 28.6218V28.4088L4.38207 28.1959V27.7699L4.59735 27.344L4.81263 27.131V26.4921L5.02791 25.8533V25.6403H5.24319V24.5755L5.45846 24.3625V2.00141H3.09041V12.4366ZM82.3126 12.0107V22.0199H84.6807V2.00141H82.3126V12.0107Z" fill="#FAFAFA" stroke="#FAFAFA" stroke-width="0.563611" mask="url(#path-1-inside-1_530_6332)"/>
<path fill-rule="evenodd" clip-rule="evenodd" d="M22.8962 1.5752L23.1114 1.78816L22.8962 2.00112H22.6809L22.4656 2.21408H23.1114V2.64001H23.7573L23.9725 2.42705V2.21408C24.4031 2.21408 24.4031 1.78816 24.1878 1.78816H23.7573L23.542 1.5752H22.8962ZM21.8198 2.85297H21.6045L21.3892 3.06594H22.035L22.2503 2.85297H21.8198ZM22.6809 2.85297L22.2503 3.06594H22.4656L22.035 3.2789L21.6045 3.49186H21.3892L21.1739 3.70483H20.9587V3.91779H20.3128L20.0975 4.13075H19.8823V4.34371H19.4517L19.2364 4.55668H18.8059L18.5906 4.76964H18.3753L18.16 4.9826H17.7295V5.19557L17.2989 5.40853L17.0837 5.62149C16.9893 5.75114 16.9166 5.89495 16.8684 6.04742L16.6531 6.26038V6.68631H16.2225L15.792 7.11223V7.3252L15.5767 7.53816L15.3614 7.75112V7.96408L15.1462 8.17705L14.9309 8.39001V8.81594H14.7156V8.17705H14.9309V7.53816L14.7156 7.75112V7.96408H14.5003V8.60297L14.285 8.81594V8.17705L14.5003 7.96408L14.285 7.75112V7.96408H14.0698V8.17705H13.8545V7.75112L14.0698 7.53816V7.3252L14.285 7.11223V6.68631L13.8545 7.11223V7.3252H13.6392V7.53816H13.4239V7.96408L13.2087 8.17705V8.60297L12.9934 8.81594V9.45483L12.7781 9.66779L12.5628 10.0937V10.7326H12.1323V11.1585L12.3475 11.3715L12.1323 11.5845V12.0104L11.917 12.8622L12.1323 14.14V14.5659L12.3475 14.7789V15.2048L12.5628 15.6308V16.0567L12.7781 16.2696V16.4826H12.9934V17.1215H13.2087V17.3345H13.4239V17.7604H13.6392V17.9733L13.8545 18.1863L14.0698 18.3993L14.285 18.6122L14.7156 19.0382C15.3787 19.8 16.0983 20.5118 16.8684 21.1678L17.0837 21.3808H17.2989L17.5142 21.5937L17.7295 21.8067L18.16 22.0196H18.3753V22.2326H18.8059L19.0212 22.4456H20.0975V22.2326H20.9587V22.0196H21.1739L21.3892 21.8067L21.6045 21.5937H21.8198V21.3808L22.035 21.1678C22.2503 20.9548 22.2503 19.89 21.8198 19.677C21.5161 19.2715 21.1534 18.9127 20.7434 18.6122H20.5281L20.3128 18.3993H19.0212V18.1863H18.3753L17.9448 17.9733H17.5142L17.2989 17.7604L17.0837 17.5474L16.8684 17.3345V17.1215H16.6531V16.6956L16.2225 16.4826L16.0073 16.2696V16.0567H16.2225V15.8437C16.2225 15.6308 16.2225 15.6308 16.2225 15.8437H16.4378V16.0567L16.6531 16.2696L17.0837 16.6956L17.2989 16.9085H17.9448V16.6956H17.7295L17.5142 16.4826L17.2989 16.2696H17.0837V16.0567H16.8684L17.0837 15.8437V16.0567L17.2989 15.8437V15.4178L17.0837 15.2048L16.8684 14.9919H16.6531V14.7789H16.4378V13.7141L16.2225 12.6493V12.0104L16.0073 11.7974L16.2225 11.5845V11.3715L16.0073 11.1585V9.88075H16.2225V9.45483L16.4378 9.24186L16.6531 9.0289V8.81594L16.8684 8.60297H17.0837V8.39001L17.2989 8.17705V8.39001H17.0837L16.8684 8.81594V9.24186L16.6531 9.45483V9.88075H16.4378C16.4378 10.7326 16.6531 10.7326 16.8684 10.3067V10.0937L17.0837 9.45483V9.0289L17.2989 8.81594V8.60297H17.5142V8.39001H17.7295L17.9448 7.75112H18.16L18.3753 7.3252L18.5906 7.11223L19.0212 6.68631V6.47334L18.8059 6.68631H18.5906V6.89927C18.1983 7.2194 17.8378 7.57597 17.5142 7.96408L17.2989 8.17705V7.75112H17.5142V7.53816H17.7295V7.3252L17.9448 7.11223L18.16 6.89927L18.5906 6.68631V5.62149L18.3753 5.83446C18.16 5.83446 18.16 5.83446 18.3753 5.83446V5.62149L18.5906 5.40853H18.8059L19.0212 5.19557L19.2364 4.9826L19.667 4.76964H19.8823L20.0975 4.55668H20.5281V4.34371H20.9587C20.9587 4.13075 20.9587 4.13075 20.9587 4.34371V4.55668H20.7434L20.5281 4.76964L20.0975 4.9826L19.667 5.40853H19.8823L20.3128 5.19557V4.9826H20.9587V4.76964V4.9826C20.7434 5.19557 20.7434 5.19557 21.1739 5.19557H21.3892L21.1739 5.40853H20.9587L20.7434 5.62149H20.5281V5.83446H20.0975V6.04742L19.8823 6.26038L19.667 6.04742H19.4517V6.26038L19.2364 6.47334H19.667L19.8823 6.26038L20.3128 6.04742H20.5281L20.7434 5.83446H20.9587L21.1739 5.62149H21.3892L21.8198 5.40853H22.4656L22.6809 5.19557H23.3267V5.40853L23.542 5.19557H24.8337L25.0489 5.40853H25.6948L25.91 5.62149H26.1253L26.3406 5.83446H26.7712V6.04742H26.9864V6.26038H27.2017L27.6323 6.68631L27.8475 6.89927H28.0628L28.2781 7.11223L28.4934 7.53816L28.7087 7.75112V7.96408H28.9239V8.39001H29.1392L29.3545 9.0289V9.24186L29.5698 9.45483V10.0937H29.785V11.5845L29.5698 11.3715V13.5011H29.785V13.2882L30.0003 13.7141V13.927H29.785V14.7789H29.5698V15.2048L29.3545 15.4178V15.6308L29.1392 15.8437V16.0567L28.9239 16.2696V16.4826L28.7087 16.6956V16.9085H28.4934V17.1215L28.2781 17.3345V16.9085H28.4934V16.6956H28.7087V16.4826L28.9239 16.0567V15.8437L28.7087 16.0567V16.2696H28.4934V16.4826L28.2781 16.6956L28.0628 16.9085V17.1215L27.8475 17.3345H27.6323V17.7604L27.8475 17.5474V17.7604L27.417 18.3993L26.9864 18.8252H26.3406L26.1253 19.0382H25.6948V19.2511H25.4795V19.677H25.6948H25.4795V19.89H25.2642L25.0489 20.103L25.2642 20.3159L25.4795 20.103V20.5289L25.6948 20.7419H26.3406L26.5559 20.5289H26.7712L26.5559 20.7419H26.3406L26.1253 20.9548H25.91V21.1678H25.6948L25.4795 21.3808L25.2642 21.5937C24.8337 21.5937 24.6184 21.8067 25.0489 21.8067H25.2642L25.4795 21.5937H26.3406L26.5559 21.3808H26.7712V21.5937H26.9864V21.3808H27.2017L27.417 21.1678L27.8475 20.9548H28.0628L28.2781 20.7419C28.2781 20.5289 28.2781 20.5289 28.2781 20.7419V20.9548H28.4934L28.7087 20.7419H28.9239V20.5289L29.1392 20.3159V20.7419H28.9239L28.7087 20.9548H28.4934V21.1678L27.8475 21.5937H27.417V21.8067H27.2017L26.9864 22.0196H26.7712L26.5559 22.2326H26.3406V22.4456L26.1253 22.6585H25.4795L25.2642 22.8715V23.0845H25.4795L26.1253 22.8715H26.5559L26.7712 22.6585L27.2017 22.4456H27.417L27.6323 22.2326H28.2781L28.4934 22.0196L28.7087 21.8067L28.9239 21.5937H29.1392V21.3808L29.785 21.1678L30.0003 20.7419H30.2156C30.5356 20.4925 30.8246 20.2066 31.0767 19.89L31.292 19.677C31.3599 19.5332 31.4317 19.3912 31.5073 19.2511L31.7225 19.0382V18.8252H31.9378V18.6122L32.1531 18.3993V18.1863H32.3684V17.7604L32.5837 17.3345L32.7989 17.1215V16.9085L33.0142 16.6956V16.4826L33.2295 16.2696V15.2048L33.4448 14.9919V14.14L33.66 13.927L33.8753 13.0752L33.66 12.6493V11.7974L33.4448 11.3715V10.3067L33.2295 9.88075V9.45483L33.0142 9.24186V8.81594L32.7989 8.60297C32.757 8.31244 32.6849 8.02698 32.5837 7.75112L32.3684 7.53816V7.11223H32.1531V6.89927L31.9378 6.68631C31.8866 6.53506 31.8141 6.39169 31.7225 6.26038L31.5073 6.04742L31.292 5.83446V5.62149L30.8614 5.40853V5.19557L30.6462 4.9826L30.4309 4.76964L30.2156 4.55668C30.4309 4.55668 30.2156 4.55668 30.2156 4.55668L29.785 4.34371L29.5698 4.13075L29.3545 3.91779H28.9239L28.7087 3.70483L28.4934 3.49186H27.8475V3.70483H28.0628V3.91779H28.2781H27.6323L27.8475 4.13075H28.0628L28.2781 4.34371H28.4934L28.7087 4.55668L28.9239 4.76964L29.1392 4.9826L29.3545 5.40853H29.5698L29.785 5.62149L30.0003 5.83446L30.2156 6.04742V6.26038L30.4309 6.47334L30.0003 6.04742C29.808 5.87408 29.5902 5.73048 29.3545 5.62149L28.9239 5.19557L28.7087 4.9826H28.4934L28.2781 4.76964L28.0628 4.55668H27.8475L27.6323 4.34371H27.417L27.2017 4.13075H26.9864L26.7712 3.91779H26.5559L26.3406 3.70483H26.1253L25.6948 3.49186H25.0489L24.8337 3.2789H23.7573L23.3267 3.06594H22.8962V2.85297H22.6809ZM18.3753 3.49186L18.16 3.70483L17.7295 3.91779H17.5142V4.13075H17.2989L17.0837 4.34371C16.8684 4.55668 16.8684 4.76964 16.4378 4.76964C16.0584 5.25166 15.6993 5.74899 15.3614 6.26038L15.1462 6.47334V6.89927L15.3614 6.47334L15.792 6.26038V6.04742L16.0073 5.83446L16.2225 5.62149L16.6531 5.19557L17.2989 4.55668L17.5142 4.34371H17.7295V4.13075H17.9448L18.16 3.91779H18.3753L18.5906 3.70483L18.3753 3.49186ZM24.6184 3.70483L25.0489 3.91779H25.2642L25.4795 4.13075H24.6184V3.91779H24.4031C24.1878 3.91779 24.1878 3.91779 24.4031 3.91779V3.70483H24.6184ZM28.9239 4.34371H28.7087H28.9239ZM17.7295 4.55668L17.5142 4.76964L17.2989 5.19557L17.5142 4.9826C17.9448 4.76964 18.16 4.55668 17.7295 4.55668ZM27.2017 4.55668V4.76964H27.6323V4.9826H27.8475L28.0628 5.40853L28.2781 5.62149V5.40853H28.0628L27.8475 5.19557L27.6323 4.9826H27.2017V4.76964H26.9864V4.55668H27.2017ZM15.5767 4.9826V5.40853C15.5767 5.62149 16.0073 5.19557 16.0073 4.76964L15.5767 4.9826ZM21.6045 4.9826L21.3892 5.19557L21.6045 4.9826H21.8198H21.6045ZM15.1462 7.11223L15.3614 7.53816V7.11223H15.1462ZM15.792 7.53816V7.96408H15.5767V8.17705H15.3614L15.5767 7.96408V7.75112H15.792V7.53816ZM28.4934 8.60297L28.7087 8.81594V9.24186L28.9239 9.0289V8.81594L28.7087 8.60297H28.4934ZM14.0698 9.24186L13.8545 9.66779V9.88075C13.8545 10.0937 13.8545 9.88075 13.8545 9.88075V9.45483H14.0698V9.0289V9.24186ZM33.4448 10.0937V10.5196H33.66V10.0937H33.4448ZM29.785 12.0104C29.785 12.2233 29.785 12.0104 29.785 12.0104V12.0104ZM30.0003 12.8622H29.785H30.0003ZM29.785 13.2882V13.0752V13.2882ZM29.3545 14.14V14.353L29.1392 14.5659V14.7789L29.3545 15.2048V14.9919L29.5698 14.7789V14.14H29.3545ZM12.5628 14.5659V14.353V14.5659ZM12.5628 14.7789L12.7781 14.9919V15.2048L12.5628 14.9919V14.5659V14.7789ZM26.3406 19.677L26.1253 19.89H25.91V20.103H25.6948V19.89H25.91L26.1253 19.677H26.3406ZM29.785 19.89H29.5698H29.785ZM26.7712 19.89L26.5559 20.103H26.3406V20.3159H26.1253L26.3406 20.103L26.5559 19.89H26.7712ZM27.2017 21.1678C26.9864 21.1678 26.9864 21.1678 27.2017 21.1678V21.1678ZM27.6323 22.0196L27.417 22.2326H26.9864H27.2017L27.417 22.0196H27.6323Z" fill="#EF4444"/>
</svg>
