<svg xmlns="http://www.w3.org/2000/svg" viewBox="0 0 227 43.02"><path fill="none" d="M-1-1h802v602H-1z"/><g><path fill="#fff" d="M80 34.68a9 9 0 00-.23-2.56.77.77 0 00-.62-.26h-.31a.23.23 0 010-.3h2.71a.22.22 0 010 .3h-.3a.72.72 0 00-.62.3 11.16 11.16 0 00-.17 2.53v1.4a4.31 4.31 0 01-.87 3 3.27 3.27 0 01-2.37.91 3.53 3.53 0 01-2.32-.68 3.54 3.54 0 01-1-2.92v-2.98c0-1.29 0-1.5-.74-1.56h-.31a.23.23 0 010-.3h3.06a.23.23 0 010 .3h-.3c-.61.06-.61.27-.61 1.56v2.68c0 2 .62 3.31 2.52 3.31S80 38 80 36.1v-1.42zM96.18 37.64v2.17a.22.22 0 01-.23.14c-.15-.21-.51-.64-1.59-1.87l-2.84-3.28c-.34-.38-1.18-1.4-1.44-1.67a3.18 3.18 0 00-.06.8v2.7a9.69 9.69 0 00.23 2.57.81.81 0 00.63.23h.38a.22.22 0 010 .31h-2.74a.23.23 0 010-.31h.33a.66.66 0 00.55-.25 11.93 11.93 0 00.16-2.55v-3.57a1.14 1.14 0 00-.27-.89 1.36 1.36 0 00-.77-.3h-.21a.22.22 0 010-.31h1.4a3.91 3.91 0 00.57 0 17.09 17.09 0 002.12 2.73l1.2 1.35c.86 1 1.46 1.65 2 2.24a1.22 1.22 0 00.05-.52v-2.68a8.76 8.76 0 00-.25-2.56 1.1 1.1 0 00-.77-.25h-.21a.21.21 0 010-.31h2.73a.22.22 0 010 .31h-.17a1.07 1.07 0 00-.69.26 10 10 0 00-.19 2.55v3l.08-.04zM105.41 33.45c0-1.31 0-1.53-.76-1.59h-.31a.24.24 0 010-.31h3.1a.25.25 0 010 .31h-.31c-.73.06-.76.27-.76 1.59v4.41c0 1.31 0 1.49.76 1.57h.31a.24.24 0 010 .31h-3.1a.24.24 0 010-.31h.31c.73-.09.76-.26.76-1.57v-4.41zM115.45 32.88a1.19 1.19 0 00-1-1h-.22a.21.21 0 010-.31h2.79a.22.22 0 010 .31h-.19c-.47.06-.57.13-.58.23a15.34 15.34 0 00.62 1.74c.57 1.44 1.14 2.86 1.76 4.28.38-.82.9-2.09 1.19-2.75.36-.84.94-2.24 1.15-2.78a1.3 1.3 0 00.11-.48c0-.09-.12-.19-.56-.23h-.22a.22.22 0 010-.31h2.49a.25.25 0 010 .31h-.37a.79.79 0 00-.65.43 30.25 30.25 0 00-1.39 2.85l-.67 1.52a43.52 43.52 0 00-1.29 3.24.26.26 0 01-.13 0 .54.54 0 01-.19 0 14.48 14.48 0 00-.57-1.65l-2.08-5.4zM130.36 33.43c0-1.29 0-1.48-.76-1.56h-.2a.25.25 0 010-.31h3.79a16.64 16.64 0 001.67 0 14.18 14.18 0 01.2 1.65.25.25 0 01-.31 0 1.34 1.34 0 00-.94-1.18 5.88 5.88 0 00-1.2-.07h-.89c-.37 0-.37 0-.37.5v2.48c0 .35 0 .35.41.35h.72a4.55 4.55 0 001.05-.08.44.44 0 00.3-.43l.1-.51a.24.24 0 01.32 0c0 .3-.05.78-.05 1.25s.05.92.05 1.19a.24.24 0 01-.32 0l-.11-.48a.53.53 0 00-.38-.47 4.08 4.08 0 00-1-.06h-.72c-.37 0-.41 0-.41.34v1.75a2 2 0 00.23 1.29 2 2 0 001.5.29 3.62 3.62 0 001.59-.19 3.08 3.08 0 00.88-1.2.23.23 0 01.31.09 10.57 10.57 0 01-.56 1.72H129.21a.24.24 0 010-.31h.41c.71-.06.77-.25.77-1.55v-4.5h-.03zM143.79 33.44c0-1.18 0-1.39-.54-1.45h-.4a.21.21 0 010-.31c.69-.06 1.55-.1 2.76-.1a4.38 4.38 0 012.07.37 1.85 1.85 0 011 1.74 2.29 2.29 0 01-1.55 2.07.29.29 0 00.06.3 13.29 13.29 0 002.49 3.29 1.48 1.48 0 00.86.35.1.1 0 010 .17 2 2 0 01-.54.06c-1.06 0-1.69-.31-2.56-1.56-.32-.46-.83-1.31-1.22-1.87a.88.88 0 00-.88-.4c-.56 0-.58 0-.58.27v1.56c0 1.3 0 1.45.74 1.55h.26a.24.24 0 010 .31h-3.02a.24.24 0 010-.31h.31c.72-.09.74-.25.74-1.55v-4.49zm1 1.77a1 1 0 000 .41 2.29 2.29 0 00.85.06 2.07 2.07 0 001.28-.32 1.78 1.78 0 00.62-1.54 1.83 1.83 0 00-2-1.91c-.77 0-.8 0-.8.4v2.9h.05zM158.77 39.95a3.87 3.87 0 01-1.93-.46 5.76 5.76 0 01-.33-1.73.22.22 0 01.3 0 2.25 2.25 0 002.13 1.85 1.41 1.41 0 001.55-1.42 1.86 1.86 0 00-1-1.73l-1.18-.77A2.64 2.64 0 01157 33.5a2.23 2.23 0 012.53-2.13 4.86 4.86 0 011.15.16 1.59 1.59 0 00.43.07 5.45 5.45 0 01.22 1.51.24.24 0 01-.31 0 1.62 1.62 0 00-1.69-1.4 1.3 1.3 0 00-1.47 1.38 1.94 1.94 0 001.05 1.52l1 .62a2.79 2.79 0 011.55 2.38 2.34 2.34 0 01-2.64 2.29M169.84 33.45c0-1.31 0-1.53-.76-1.59h-.31a.24.24 0 010-.31h3.1a.24.24 0 010 .31h-.31c-.73.06-.75.27-.75 1.59v4.41c0 1.31 0 1.49.75 1.57h.31a.24.24 0 010 .31h-3.1a.24.24 0 010-.31h.31c.73-.09.76-.26.76-1.57v-4.41zM183.59 37.89c0 1.3 0 1.49.74 1.55h.4a.25.25 0 010 .31h-3.34a.22.22 0 010-.31h.45c.71-.06.77-.25.77-1.55v-5.54c0-.38 0-.4-.37-.4h-.68a2.54 2.54 0 00-1.52.31 2.27 2.27 0 00-.56.86.24.24 0 01-.32-.09 12.92 12.92 0 00.47-1.85.32.32 0 01.24 0c.08.4.49.38 1.06.38h5c.67 0 .78 0 1-.35a.23.23 0 01.22 0 7.44 7.44 0 00-.19 1.88.23.23 0 01-.32 0 1.59 1.59 0 00-.31-.9 2.47 2.47 0 00-1.44-.31H184c-.37 0-.36 0-.36.42v5.52l-.05.07zM197.72 37.86c0 1.32.07 1.52.74 1.57h.47a.24.24 0 010 .31h-3.31a.24.24 0 010-.31h.39c.72-.07.74-.25.74-1.57v-.63a2.5 2.5 0 00-.39-1.54l-1.46-2.85c-.42-.82-.61-.88-1-.94l-.35-.06a.23.23 0 010-.31h2.77a.21.21 0 010 .31h-.16c-.43.06-.52.12-.52.22a6.18 6.18 0 00.38 1c.46.92.92 1.89 1.4 2.75.38-.66.79-1.38 1.16-2.1a11.21 11.21 0 00.8-1.64.67.67 0 00-.52-.2h-.22a.21.21 0 010-.31h2.34a.21.21 0 010 .31l-.35.06c-.64.11-1 .89-1.64 2l-.78 1.35a2.85 2.85 0 00-.58 2v.64l.09-.06zM21 43a31.73 31.73 0 003.73-2.44V28L21 25.57V43zM21 16.89l3.73 2.48V13q-1.86 0-3.73-.06v4-.05zM32.18 13.7a92.39 92.39 0 00-3.73-.4v8.55l3.73 2.48V13.7zM28.45 30.53v6.82A37.89 37.89 0 0032.18 33l-3.73-2.47zM32.18 33zM35.9 14.26v12.55A42.85 42.85 0 0039.59 15h-.13a85.8 85.8 0 00-3.56-.67M24.73 19.38v8.67l3.72 2.48v-8.68l-3.72-2.47zM32.18 24.33V33a38.49 38.49 0 003.72-6.17l-3.72-2.5zM35.9 26.84zM12.83 28.61a5.86 5.86 0 002.81-1.75 11.49 11.49 0 00-1.43-.41 9 9 0 01-1.38 2.16M6.92 26.87a5.85 5.85 0 002.81 1.75 9.05 9.05 0 01-1.38-2.16 11.68 11.68 0 00-1.43.42M10.74 17.84a8.29 8.29 0 00-1.28 1.86c.4.05.82.09 1.27.11v-2l.01.03zM14.58 25.44a12.4 12.4 0 011.72.56 5.79 5.79 0 00.81-2.45h-2.18a8.39 8.39 0 01-.35 1.92M9.73 17.34a5.86 5.86 0 00-2.81 1.75 11.52 11.52 0 001.43.42 9.06 9.06 0 011.38-2.16M15.64 19.09a5.85 5.85 0 00-2.81-1.74 9 9 0 011.38 2.16 11.57 11.57 0 001.43-.42M14.93 22.44h2.17a5.77 5.77 0 00-.8-2.44 12.4 12.4 0 01-1.71.53 8.43 8.43 0 01.34 1.92M11.81 28.13a8.22 8.22 0 001.28-1.87c-.4-.05-.83-.09-1.28-.11v2-.02zM10.74 23.52h-2A7.24 7.24 0 009 25.23a14.74 14.74 0 011.69-.15v-1.56h.05zM11.81 25.08a14.66 14.66 0 011.7.15 7.23 7.23 0 00.34-1.72h-2v1.56l-.04.01zM13.1 19.7a8.11 8.11 0 00-1.29-1.87v2c.46 0 .89-.05 1.29-.11M13.85 22.44a7.24 7.24 0 00-.34-1.72 15 15 0 01-1.7.16v1.56h2.04zM9.46 26.26a8.45 8.45 0 001.27 1.86v-2q-.68 0-1.27.11M8 20.52A12.51 12.51 0 016.26 20a5.84 5.84 0 00-.8 2.45h2.17A8.43 8.43 0 018 20.52M10.74 20.88A14.62 14.62 0 019 20.73a7.23 7.23 0 00-.34 1.72h2v-1.57h.08zM7.63 23.52H5.45A5.83 5.83 0 006.26 26 12.74 12.74 0 018 25.44a8.36 8.36 0 01-.35-1.92"/><path fill="#fff" d="M.66 15C3.4 31.87 14 40.11 19.25 43V12.94a93.77 93.77 0 00-18.46 2L.66 15zm10.61 1.09A6.93 6.93 0 114.35 23a6.93 6.93 0 016.93-6.93"/><path fill="#fff" d="M39.45 2A92.57 92.57 0 00.79 2 1 1 0 000 3v3.52A53.61 53.61 0 00.39 13a96 96 0 0139.47 0 54.19 54.19 0 00.39-6.51V3a1 1 0 00-.8-1m-4.35 8.69a84.23 84.23 0 00-15-1.2 84.19 84.19 0 00-15 1.2.22.22 0 01-.24-.32l3.19-7c0-.06 2.09-1.08 2.09-1.08a20.71 20.71 0 019.93.8 20.7 20.7 0 019.93-.8s2.06 1 2.09 1.08l3.18 7a.22.22 0 01-.24.32"/><path fill="#fff" d="M29.23 3.45L30.57 7a19.39 19.39 0 00-9.53 1v.39c3.61-.14 8.17-.34 11.86.46l-2-4.62-1.67-.78zM9.64 7L11 3.45l-1.66.77-2 4.63c3.66-.79 8.21-.59 11.82-.46v-.33A19.37 19.37 0 009.64 7M52.15 9.33c0-3.16-.28-3.5-2-3.64l-.71-.06a.56.56 0 01.06-.71c1.68.08 2.65.08 3.84.08s2.1 0 3.24-.09a.56.56 0 01.06.71l-.43.06c-1.68.23-1.74.63-1.74 3.64v10.56a15.82 15.82 0 01-.65 5.52 6.18 6.18 0 01-5.61 4.1c-.34 0-1.22 0-1.22-.6a1.34 1.34 0 011-1.31 3.46 3.46 0 011.05.17 4.4 4.4 0 001.2.2 1.21 1.21 0 001.14-.74c.65-1.34.74-5.6.74-7.14V9.33h.03zM56.58 16a8.3 8.3 0 018.54-8.47 7.9 7.9 0 018.33 8.23 8.19 8.19 0 01-8.33 8.38c-5.33 0-8.54-3.82-8.54-8.14m14.47.5c0-4-1.75-8.23-6.33-8.23-2.5 0-5.74 1.71-5.74 7 0 3.55 1.73 8.16 6.45 8.16 2.88 0 5.62-2.16 5.62-6.89M78.91 16c-1.15 0-1.2 0-1.2.77v3.38c0 2.52.12 2.86 1.46 3l.7.07a.47.47 0 010 .6c-1.3 0-2.11-.07-3-.07s-1.85 0-2.78.07a.46.46 0 010-.6l.41-.07c1.34-.24 1.39-.48 1.39-3v-8.61c0-2.52-.17-2.93-1.42-3h-.62a.47.47 0 010-.6c1.18 0 2 .07 3 .07s1.75 0 2.78-.07a.47.47 0 010 .6h-.46c-1.39.14-1.44.5-1.44 3v2.76c0 .74 0 .77 1.2.77h6.86c1.15 0 1.2 0 1.2-.77v-2.76c0-2.52 0-2.88-1.46-3h-.46a.47.47 0 010-.6c1.1 0 1.92.07 2.9.07s1.75 0 2.83-.07a.47.47 0 010 .6h-.5c-1.39.14-1.44.5-1.44 3v8.64c0 2.52 0 2.83 1.44 3l.7.07a.47.47 0 010 .6c-1.15 0-2-.07-2.9-.07s-1.85 0-2.9.07a.46.46 0 010-.6l.46-.07c1.34-.24 1.34-.48 1.34-3v-3.39c0-.72 0-.77-1.2-.77h-6.89V16zM107.35 19.7c0 .72 0 3.58.07 4.2a.43.43 0 01-.45.26 69 69 0 00-3.07-3.62l-5.57-6.34c-.65-.74-2.33-2.71-2.79-3.2a6 6 0 00-.12 1.56v5.23c0 1.13 0 4.25.43 5a1.58 1.58 0 001.22.46l.74.07a.44.44 0 010 .6c-1.08 0-1.92-.07-2.81-.07s-1.66 0-2.5.07a.45.45 0 010-.6l.5-.14a1.29 1.29 0 001.06-.48 23.23 23.23 0 00.31-4.94v-6.94a2.2 2.2 0 00-.53-1.73 2.61 2.61 0 00-1.49-.58L92 8.47a.42.42 0 010-.6c1 .07 2.28.07 2.71.07a7.57 7.57 0 001.1-.07c.48 1.23 3.31 4.39 4.1 5.28l2.33 2.61c1.66 1.85 2.83 3.19 4 4.34a2.41 2.41 0 00.1-1V14c0-1.13 0-4.25-.48-5a2.17 2.17 0 00-1.49-.48h-.41a.4.4 0 010-.6c1.1 0 1.92.07 2.83.07s1.65 0 2.47-.07a.42.42 0 010 .6h-.34a2.12 2.12 0 00-1.35.5c-.41.86-.36 3.84-.36 4.94v5.74h.14zM113.69 24.16a7.48 7.48 0 01-3.74-.89 11.13 11.13 0 01-.65-3.36.42.42 0 01.58-.07c.36 1.22 1.34 3.58 4.13 3.58a2.73 2.73 0 003-2.76 3.61 3.61 0 00-2-3.36l-2.28-1.49a5.12 5.12 0 01-2.59-4.13c0-2.28 1.78-4.13 4.9-4.13a9.33 9.33 0 012.23.31 3.14 3.14 0 00.84.14 10.49 10.49 0 01.43 2.93.48.48 0 01-.6.07 3.14 3.14 0 00-3.24-2.7c-2.35 0-2.86 1.56-2.86 2.67a3.78 3.78 0 002 3l1.92 1.2a5.4 5.4 0 013 4.61c0 2.64-2 4.44-5.11 4.44M133 14.59c-1.37 0-1.42.06-1.42.91v4c0 3 .14 3.39 1.73 3.56l.83.09a.55.55 0 01-.06.71c-1.54-.06-2.5-.08-3.61-.08s-2.19.06-3.3.08a.55.55 0 01-.06-.71l.48-.09c1.59-.29 1.65-.57 1.65-3.56V9.27c0-3-.2-3.47-1.68-3.58l-.74-.06a.56.56 0 01.06-.71c1.39 0 2.36.08 3.58.08s2.08 0 3.3-.08a.56.56 0 01.06.71l-.54.06c-1.65.17-1.71.6-1.71 3.58v3.27c0 .88.06.91 1.42.91h8.14c1.37 0 1.42 0 1.42-.91V9.27c0-3-.06-3.41-1.74-3.58l-.54-.06a.56.56 0 01.06-.71c1.37.08 2.34.08 3.5.08s2.08 0 3.36-.08a.56.56 0 01.06.71l-.6.06c-1.65.17-1.71.6-1.71 3.58v10.24c0 3 .06 3.36 1.71 3.56l.68.09a.55.55 0 01-.06.71c-1.36-.06-2.33-.08-3.44-.08s-2.19 0-3.44.08a.55.55 0 01-.06-.71l.54-.09c1.74-.29 1.74-.57 1.74-3.56v-4c0-.85-.06-.91-1.42-.91H133v-.01z"/><path fill="#fff" d="M147.15 16a8.3 8.3 0 018.54-8.47 7.9 7.9 0 018.31 8.25 8.19 8.19 0 01-8.33 8.38c-5.33 0-8.54-3.82-8.54-8.14m14.47.5c0-4-1.75-8.23-6.34-8.23-2.5 0-5.74 1.71-5.74 7 0 3.55 1.73 8.16 6.46 8.16 2.88 0 5.62-2.16 5.62-6.89M168.37 20.18c0 2.52 0 2.83 1.58 3l.65.07a.47.47 0 010 .6c-1.37 0-2.16-.07-3.12-.07s-1.87 0-2.93.07a.47.47 0 010-.6l.5-.07c1.39-.19 1.44-.48 1.44-3v-8.86c0-2 0-2.45-1.13-2.57l-.86-.1a.4.4 0 010-.6 37.61 37.61 0 014.75-.19 8.66 8.66 0 014.61 1 4.15 4.15 0 011.92 3.6 4.07 4.07 0 01-2.4 3.82A8.1 8.1 0 01170 17a.3.3 0 010-.48c2.59-.48 3.53-1.95 3.53-4a3.54 3.54 0 00-3.86-3.84c-1.27 0-1.3.09-1.3.86v10.7-.06zM178.35 11.54c0-2.52 0-2.9-1.44-3h-.6a.48.48 0 010-.6c1.18 0 1.94.07 3 .07s1.75 0 2.79-.07a.47.47 0 010 .6h-.45c-1.39.14-1.44.5-1.44 3v2.76c0 .45 0 .91.31.91a1.36 1.36 0 00.67-.26c.34-.29 1-.91 1.22-1.15l2.59-2.57a27.33 27.33 0 001.87-2 .71.71 0 00.17-.39c0-.1-.1-.17-.41-.24l-.65-.14a.4.4 0 010-.6c.84 0 1.8.07 2.64.07s1.66 0 2.38-.07a.44.44 0 010 .6 5.92 5.92 0 00-2.23.67 23.88 23.88 0 00-3.36 2.78l-2.16 2a1.51 1.51 0 00-.55.74 1.54 1.54 0 00.46.74c2.28 2.61 4.13 4.78 6 6.74a2.78 2.78 0 001.83 1l.46.07a.42.42 0 010 .6c-.62 0-1.28-.07-2.41-.07s-1.83 0-2.93.07a.44.44 0 01-.1-.6l.55-.1a.63.63 0 00.58-.24 1.29 1.29 0 00-.34-.55c-.46-.58-1.08-1.22-2-2.26l-1.92-2.16c-1.37-1.54-1.75-2-2.33-2-.36 0-.41.31-.41 1.15v3.1c0 2.52 0 2.85 1.39 3l.65.07a.47.47 0 010 .6c-1.18 0-2-.07-2.93-.07s-1.8 0-2.78.07a.46.46 0 010-.6l.48-.07c1.27-.19 1.32-.48 1.32-3v-8.6h.08zM194.83 11.59c0-2.54 0-3-1.46-3.07h-.6a.47.47 0 010-.6c1.2 0 2 .07 3 .07s1.78 0 3-.07a.47.47 0 010 .6h-.6c-1.42.12-1.46.53-1.46 3.07v8.54c0 2.55 0 2.88 1.46 3l.6.07a.47.47 0 010 .6c-1.2 0-2-.07-3-.07s-1.73 0-2.93.07a.47.47 0 010-.6l.51-.07c1.42-.17 1.46-.5 1.46-3v-8.54h.02zM215.59 19.7c0 .72 0 3.58.07 4.2a.43.43 0 01-.46.26 69 69 0 00-3.07-3.62l-5.57-6.34c-.65-.74-2.28-2.71-2.78-3.24a6 6 0 00-.12 1.56v5.23c0 1.13 0 4.25.43 5a1.57 1.57 0 001.22.46l.69.04a.44.44 0 010 .6c-1.08 0-1.92-.07-2.81-.07s-1.66 0-2.5.07a.44.44 0 010-.6l.65-.07a1.29 1.29 0 001.06-.48 23.17 23.17 0 00.31-4.94v-6.94a2.2 2.2 0 00-.53-1.73 2.61 2.61 0 00-1.49-.58h-.41a.42.42 0 010-.6c1 .07 2.28.07 2.71.07a7.58 7.58 0 001.1-.07c.48 1.23 3.31 4.39 4.1 5.28l2.33 2.61c1.66 1.85 2.83 3.19 4 4.34a2.43 2.43 0 00.1-1V14c0-1.13 0-4.25-.48-5a2.16 2.16 0 00-1.49-.48h-.41a.4.4 0 010-.6c1.1 0 1.92.07 2.83.07s1.66 0 2.47-.07a.42.42 0 010 .6h-.34a2.12 2.12 0 00-1.34.5c-.41.86-.36 3.84-.36 4.94v5.74h.09zM221.89 24.16a7.49 7.49 0 01-3.75-.89 11.13 11.13 0 01-.65-3.36.42.42 0 01.58-.07c.36 1.22 1.34 3.58 4.13 3.58a2.73 2.73 0 003-2.76 3.61 3.61 0 00-2-3.36l-2.2-1.49a5.12 5.12 0 01-2.59-4.13c0-2.28 1.78-4.13 4.9-4.13a9.34 9.34 0 012.23.31 3.15 3.15 0 00.84.14 10.46 10.46 0 01.43 2.93.48.48 0 01-.6.07 3.14 3.14 0 00-3.31-2.7c-2.36 0-2.9 1.56-2.9 2.7a3.78 3.78 0 002 3l1.92 1.2a5.41 5.41 0 013 4.61c0 2.64-2 4.44-5.11 4.44"/></g></svg>
