<svg width="34" height="34" viewBox="0 0 34 34" fill="none" xmlns="http://www.w3.org/2000/svg">
<path d="M31 20.8182H26.5735C25.6981 20.8182 24.8422 21.1168 24.1143 21.6762C23.3864 22.2355 22.819 23.0306 22.484 23.9609C22.149 24.8911 22.0613 25.9147 22.2321 26.9023C22.4029 27.8898 22.8245 28.7969 23.4435 29.5089C24.0626 30.2209 24.8513 30.7057 25.71 30.9022C26.5686 31.0986 27.4586 30.9978 28.2675 30.6125C29.0763 30.2272 29.7676 29.5746 30.254 28.7374C30.7404 27.9003 31 26.916 31 25.9091V13.1818C31 10.4814 30.0673 7.89165 28.407 5.98218C26.7468 4.07272 24.495 3 22.1471 3" stroke="#FAFAFA" stroke-width="5" stroke-linecap="round" stroke-linejoin="round"/>
<path d="M11.853 20.8182H7.42656C6.55108 20.8182 5.69527 21.1168 4.96734 21.6762C4.23941 22.2355 3.67206 23.0306 3.33703 23.9609C3.002 24.8911 2.91434 25.9147 3.08514 26.9023C3.25594 27.8898 3.67752 28.7969 4.29657 29.5089C4.91562 30.2209 5.70434 30.7057 6.563 30.9022C7.42165 31.0986 8.31166 30.9978 9.12049 30.6125C9.92933 30.2272 10.6206 29.5746 11.107 28.7374C11.5934 27.9003 11.853 26.916 11.853 25.9091V13.1818C11.853 10.4814 10.9203 7.89165 9.26006 5.98218C7.59981 4.07272 5.34803 3 3.00009 3" stroke="#FAFAFA" stroke-width="5" stroke-linecap="round" stroke-linejoin="round"/>
</svg>
