<svg width="34" height="34" viewBox="0 0 34 34" fill="none" xmlns="http://www.w3.org/2000/svg">
	<path d="M3 20.8182H7.42647C8.30194 20.8182 9.15776 21.1168 9.88569 21.6762C10.6136 22.2355 11.181 23.0306 11.516 23.9609C11.851 24.8911 11.9387 25.9147 11.7679 26.9023C11.5971 27.8898 11.1755 28.7969 10.5565 29.5089C9.9374 30.2209 9.14868 30.7057 8.29003 30.9022C7.43138 31.0986 6.54136 30.9978 5.73253 30.6125C4.9237 30.2272 4.23238 29.5746 3.746 28.7374C3.25961 27.9003 3 26.916 3 25.9091V13.1818C3 10.4814 3.93272 7.89165 5.59297 5.98218C7.25322 4.07272 9.505 3 11.8529 3" stroke="#FAFAFA" stroke-width="5" stroke-linecap="round" stroke-linejoin="round" />
	<path d="M22.147 20.8182H26.5734C27.4489 20.8182 28.3047 21.1168 29.0327 21.6762C29.7606 22.2355 30.3279 23.0306 30.663 23.9609C30.998 24.8911 31.0857 25.9147 30.9149 26.9023C30.7441 27.8898 30.3225 28.7969 29.7034 29.5089C29.0844 30.2209 28.2957 30.7057 27.437 30.9022C26.5784 31.0986 25.6883 30.9978 24.8795 30.6125C24.0707 30.2272 23.3794 29.5746 22.893 28.7374C22.4066 27.9003 22.147 26.916 22.147 25.9091V13.1818C22.147 10.4814 23.0797 7.89165 24.7399 5.98218C26.4002 4.07272 28.652 3 30.9999 3" stroke="#FAFAFA" stroke-width="5" stroke-linecap="round" stroke-linejoin="round" />
</svg>
